<?xml version="1.0" encoding="UTF-8"?>
<svg xmlns="http://www.w3.org/2000/svg" xmlns:xlink="http://www.w3.org/1999/xlink" width="128" height="128" viewBox="0 0 128 128" version="1.1">
<g id="surface1">
<rect x="0" y="0" width="128" height="128" style="fill:rgb(70.196078%,72.941176%,77.254902%);fill-opacity:1;stroke:none;"/>
<path style=" stroke:none;fill-rule:evenodd;fill:rgb(95.686275%,96.078431%,96.862745%);fill-opacity:1;" d="M 83.199219 44.800781 C 83.199219 55.402344 74.605469 64 64 64 C 53.394531 64 44.800781 55.402344 44.800781 44.800781 C 44.800781 34.195312 53.394531 25.601562 64 25.601562 C 74.605469 25.601562 83.199219 34.195312 83.199219 44.800781 Z M 83.199219 44.800781 "/>
<path style=" stroke:none;fill-rule:nonzero;fill:rgb(95.686275%,96.078431%,96.862745%);fill-opacity:1;" d="M 32 103.96875 C 40.765625 110.996094 51.890625 115.199219 64 115.199219 C 76.109375 115.199219 87.234375 110.996094 96 103.96875 L 96 76.800781 C 96 73.265625 93.148438 70.398438 89.628906 70.398438 L 38.371094 70.398438 C 34.875 70.398438 32 73.265625 32 76.804688 Z M 32 103.96875 "/>
</g>
</svg>
